<?xml version="1.0" encoding="UTF-8"?>
<svg xmlns="http://www.w3.org/2000/svg" xmlns:xlink="http://www.w3.org/1999/xlink" width="16px" height="16px" viewBox="0 0 16 16" version="1.1">
<g id="surface1">
<path style=" stroke:none;fill-rule:nonzero;fill:rgb(8.235294%,39.607843%,75.294118%);fill-opacity:1;" d="M 9.207031 0.40625 C 9.128906 0.34375 9.023438 0.316406 8.925781 0.339844 L 0.257812 2.339844 C 0.105469 2.375 0 2.511719 0 2.667969 L 0 14 C 0 14.164062 0.121094 14.304688 0.28125 14.332031 L 8.949219 15.664062 C 9.132812 15.691406 9.300781 15.566406 9.328125 15.386719 C 9.332031 15.367188 9.332031 15.351562 9.332031 15.335938 L 9.332031 0.667969 C 9.332031 0.566406 9.289062 0.46875 9.207031 0.40625 Z M 9.207031 0.40625 "/>
<path style=" stroke:none;fill-rule:nonzero;fill:rgb(8.235294%,39.607843%,75.294118%);fill-opacity:1;" d="M 15.667969 14.335938 L 9 14.335938 C 8.816406 14.335938 8.667969 14.183594 8.667969 14 C 8.667969 13.816406 8.816406 13.667969 9 13.667969 L 15.332031 13.667969 L 15.332031 2.335938 L 9 2.335938 C 8.816406 2.335938 8.667969 2.183594 8.667969 2 C 8.667969 1.816406 8.816406 1.667969 9 1.667969 L 15.667969 1.667969 C 15.851562 1.667969 16 1.816406 16 2 L 16 14 C 16 14.183594 15.851562 14.335938 15.667969 14.335938 Z M 15.667969 14.335938 "/>
<path style=" stroke:none;fill-rule:nonzero;fill:rgb(98.039216%,98.039216%,98.039216%);fill-opacity:1;" d="M 5.667969 11 C 5.519531 11 5.386719 10.902344 5.347656 10.761719 L 4.332031 7.214844 L 3.320312 10.761719 C 3.246094 10.9375 3.042969 11.019531 2.867188 10.949219 C 2.78125 10.914062 2.714844 10.84375 2.679688 10.761719 L 1.347656 6.09375 C 1.289062 5.917969 1.386719 5.730469 1.5625 5.675781 C 1.738281 5.617188 1.925781 5.714844 1.980469 5.890625 C 1.984375 5.898438 1.984375 5.902344 1.988281 5.910156 L 3 9.453125 L 4.011719 5.910156 C 4.085938 5.734375 4.289062 5.648438 4.464844 5.722656 C 4.550781 5.757812 4.617188 5.824219 4.652344 5.910156 L 5.667969 9.453125 L 6.679688 5.910156 C 6.726562 5.734375 6.910156 5.632812 7.085938 5.679688 C 7.085938 5.679688 7.089844 5.679688 7.09375 5.679688 C 7.269531 5.730469 7.371094 5.917969 7.320312 6.09375 L 5.988281 10.761719 C 5.945312 10.902344 5.816406 11 5.667969 11 Z M 5.667969 11 "/>
<path style=" stroke:none;fill-rule:nonzero;fill:rgb(8.235294%,39.607843%,75.294118%);fill-opacity:1;" d="M 14.332031 4.335938 L 9 4.335938 C 8.816406 4.335938 8.667969 4.183594 8.667969 4 C 8.667969 3.816406 8.816406 3.667969 9 3.667969 L 14.332031 3.667969 C 14.515625 3.667969 14.667969 3.816406 14.667969 4 C 14.667969 4.183594 14.515625 4.335938 14.332031 4.335938 Z M 14.332031 4.335938 "/>
<path style=" stroke:none;fill-rule:nonzero;fill:rgb(8.235294%,39.607843%,75.294118%);fill-opacity:1;" d="M 14.332031 6.335938 L 9 6.335938 C 8.816406 6.335938 8.667969 6.183594 8.667969 6 C 8.667969 5.816406 8.816406 5.667969 9 5.667969 L 14.332031 5.667969 C 14.515625 5.667969 14.667969 5.816406 14.667969 6 C 14.667969 6.183594 14.515625 6.335938 14.332031 6.335938 Z M 14.332031 6.335938 "/>
<path style=" stroke:none;fill-rule:nonzero;fill:rgb(8.235294%,39.607843%,75.294118%);fill-opacity:1;" d="M 14.332031 8.335938 L 9 8.335938 C 8.816406 8.335938 8.667969 8.183594 8.667969 8 C 8.667969 7.816406 8.816406 7.667969 9 7.667969 L 14.332031 7.667969 C 14.515625 7.667969 14.667969 7.816406 14.667969 8 C 14.667969 8.183594 14.515625 8.335938 14.332031 8.335938 Z M 14.332031 8.335938 "/>
<path style=" stroke:none;fill-rule:nonzero;fill:rgb(8.235294%,39.607843%,75.294118%);fill-opacity:1;" d="M 14.332031 10.335938 L 9 10.335938 C 8.816406 10.335938 8.667969 10.183594 8.667969 10 C 8.667969 9.816406 8.816406 9.667969 9 9.667969 L 14.332031 9.667969 C 14.515625 9.667969 14.667969 9.816406 14.667969 10 C 14.667969 10.183594 14.515625 10.335938 14.332031 10.335938 Z M 14.332031 10.335938 "/>
<path style=" stroke:none;fill-rule:nonzero;fill:rgb(8.235294%,39.607843%,75.294118%);fill-opacity:1;" d="M 14.332031 12.335938 L 9 12.335938 C 8.816406 12.335938 8.667969 12.183594 8.667969 12 C 8.667969 11.816406 8.816406 11.667969 9 11.667969 L 14.332031 11.667969 C 14.515625 11.667969 14.667969 11.816406 14.667969 12 C 14.667969 12.183594 14.515625 12.335938 14.332031 12.335938 Z M 14.332031 12.335938 "/>
</g>
</svg>
